<svg xmlns="http://www.w3.org/2000/svg" width="1923.464" height="330.885" viewBox="0 0 1923.464 330.885">
  <g id="Group_10145" data-name="Group 10145" transform="matrix(0.999, -0.035, 0.035, 0.999, -4.323, 28.576)" opacity="0.2">
    <g id="Group_10121" data-name="Group 10121" transform="translate(180.063 96.215)">
      <line id="Line_4" data-name="Line 4" x1="15.252" y1="14.305" transform="translate(0 0.471)" fill="none" stroke="#ededed" stroke-linecap="round" stroke-linejoin="round" stroke-width="5"/>
      <line id="Line_5" data-name="Line 5" y1="15.252" x2="14.307" transform="translate(0.472 0)" fill="none" stroke="#ededed" stroke-linecap="round" stroke-linejoin="round" stroke-width="5"/>
    </g>
    <g id="Group_10122" data-name="Group 10122" transform="translate(1008.438 175.754)">
      <line id="Line_6" data-name="Line 6" x1="15.252" y2="14.305" transform="translate(0 0.476)" fill="none" stroke="#ededed" stroke-linecap="round" stroke-linejoin="round" stroke-width="5"/>
      <line id="Line_7" data-name="Line 7" x2="14.307" y2="15.252" transform="translate(0.472 0)" fill="none" stroke="#ededed" stroke-linecap="round" stroke-linejoin="round" stroke-width="5"/>
    </g>
    <g id="Group_10123" data-name="Group 10123" transform="translate(5.336 75.339)">
      <line id="Line_8" data-name="Line 8" x1="15.252" y1="14.305" transform="translate(0 0.471)" fill="none" stroke="#ededed" stroke-linecap="round" stroke-linejoin="round" stroke-width="5"/>
      <line id="Line_9" data-name="Line 9" y1="15.252" x2="14.307" transform="translate(0.472 0)" fill="none" stroke="#ededed" stroke-linecap="round" stroke-linejoin="round" stroke-width="5"/>
    </g>
    <g id="Group_10124" data-name="Group 10124" transform="translate(919.107 95.841)">
      <line id="Line_10" data-name="Line 10" x1="15.252" y1="14.305" transform="translate(0 0.471)" fill="none" stroke="#ededed" stroke-linecap="round" stroke-linejoin="round" stroke-width="5"/>
      <line id="Line_11" data-name="Line 11" y1="15.252" x2="14.307" transform="translate(0.471 0)" fill="none" stroke="#ededed" stroke-linecap="round" stroke-linejoin="round" stroke-width="5"/>
    </g>
    <g id="Group_10125" data-name="Group 10125" transform="translate(617.178 173.646)">
      <line id="Line_12" data-name="Line 12" x1="15.252" y1="14.305" transform="translate(0 0.471)" fill="none" stroke="#ededed" stroke-linecap="round" stroke-linejoin="round" stroke-width="5"/>
      <line id="Line_13" data-name="Line 13" y1="15.252" x2="14.307" transform="translate(0.473 0)" fill="none" stroke="#ededed" stroke-linecap="round" stroke-linejoin="round" stroke-width="5"/>
    </g>
    <g id="Group_10126" data-name="Group 10126" transform="translate(1788.918 132.217)">
      <line id="Line_14" data-name="Line 14" x1="15.252" y2="14.305" transform="translate(0 0.477)" fill="none" stroke="#ededed" stroke-linecap="round" stroke-linejoin="round" stroke-width="5"/>
      <line id="Line_15" data-name="Line 15" x2="14.307" y2="15.252" transform="translate(0.471 0)" fill="none" stroke="#ededed" stroke-linecap="round" stroke-linejoin="round" stroke-width="5"/>
    </g>
    <path id="Path_6555" data-name="Path 6555" d="M345.52,167.926l-10.5-18.162-10.469,18.172-10.478,18.176,20.972-.018,20.977-.01Z" transform="translate(159.59 -16.04)" fill="none" stroke="#ededed" stroke-linecap="round" stroke-linejoin="round" stroke-width="5"/>
    <path id="Path_6556" data-name="Path 6556" d="M155.437,83.381l5.417-20.269L140.6,68.559,120.34,74l14.843,14.817,14.84,14.826Z" transform="translate(-36.866 -34.04)" fill="none" stroke="#ededed" stroke-linecap="round" stroke-linejoin="round" stroke-width="5"/>
    <path id="Path_6557" data-name="Path 6557" d="M141.074,521.287l5.417,20.269-20.252-5.447-20.262-5.443L120.82,515.85l14.84-14.826Z" transform="translate(1012.452 -363.283)" fill="none" stroke="#ededed" stroke-linecap="round" stroke-linejoin="round" stroke-width="5"/>
    <path id="Path_6558" data-name="Path 6558" d="M521.615,106.021l18.162-10.5L521.605,85.051,503.43,74.572l.018,20.973.01,20.978Z" transform="translate(285.428 -34.04)" fill="none" stroke="#ededed" stroke-linecap="round" stroke-linejoin="round" stroke-width="5"/>
    <path id="Path_6559" data-name="Path 6559" d="M300.563,103.645A15.913,15.913,0,1,1,284.65,87.732,15.914,15.914,0,0,1,300.563,103.645Z" transform="translate(122.659 -34.04)" fill="none" stroke="#ededed" stroke-linecap="round" stroke-linejoin="round" stroke-width="5"/>
    <path id="Path_6560" data-name="Path 6560" d="M310.718,573.3A15.913,15.913,0,1,0,294.8,589.211,15.914,15.914,0,0,0,310.718,573.3Z" transform="translate(1123.872 -483.299)" fill="none" stroke="#ededed" stroke-linecap="round" stroke-linejoin="round" stroke-width="5"/>
    <path id="Path_6561" data-name="Path 6561" d="M353.279,533.6a15.914,15.914,0,0,0,31.828,0" transform="translate(1175.051 -419.818)" fill="none" stroke="#ededed" stroke-linecap="round" stroke-linejoin="round" stroke-width="5"/>
    <path id="Path_6562" data-name="Path 6562" d="M58.85,175.894a15.842,15.842,0,1,1,31.683,0" transform="translate(-36.866 -34.04)" fill="none" stroke="#ededed" stroke-linecap="round" stroke-linejoin="round" stroke-width="5"/>
    <path id="Path_6563" data-name="Path 6563" d="M459.969,201.953a15.842,15.842,0,1,1,0-31.683" transform="translate(239.347 -34.04)" fill="none" stroke="#ededed" stroke-linecap="round" stroke-linejoin="round" stroke-width="5"/>
    <path id="Path_6564" data-name="Path 6564" d="M76.791,541.543a15.841,15.841,0,1,0,0,31.682" transform="translate(967.965 -451.471)" fill="none" stroke="#ededed" stroke-linecap="round" stroke-linejoin="round" stroke-width="5"/>
    <path id="Path_6565" data-name="Path 6565" d="M247.55,67.131a15.842,15.842,0,1,1,0-31.683" transform="translate(-36.866 -34.04)" fill="none" stroke="#ededed" stroke-linecap="round" stroke-linejoin="round" stroke-width="5"/>
    <rect id="Rectangle_892" data-name="Rectangle 892" width="31.654" height="31.654" transform="translate(836.803 152.244)" fill="none" stroke="#ededed" stroke-linecap="round" stroke-linejoin="round" stroke-width="5"/>
    <rect id="Rectangle_893" data-name="Rectangle 893" width="31.652" height="31.654" transform="translate(1853.166 90.086)" fill="none" stroke="#ededed" stroke-linecap="round" stroke-linejoin="round" stroke-width="5"/>
    <rect id="Rectangle_894" data-name="Rectangle 894" width="31.652" height="31.654" transform="translate(613.169 1.423)" fill="none" stroke="#ededed" stroke-linecap="round" stroke-linejoin="round" stroke-width="5"/>
    <g id="Group_10127" data-name="Group 10127" transform="translate(1744.654 77.744)">
      <path id="Path_6566" data-name="Path 6566" d="M437.476,573.3c-6.91,0-5.718,12.256-14.537,12.256" transform="translate(-422.939 -573.297)" fill="none" stroke="#ededed" stroke-linecap="round" stroke-linejoin="round" stroke-width="5"/>
      <path id="Path_6567" data-name="Path 6567" d="M466.549,573.3c-6.91,0-5.719,12.254-14.535,12.254" transform="translate(-422.939 -573.299)" fill="none" stroke="#ededed" stroke-linecap="round" stroke-linejoin="round" stroke-width="5"/>
      <path id="Path_6568" data-name="Path 6568" d="M437.476,573.3c6.911,0,5.719,12.254,14.538,12.254" transform="translate(-422.939 -573.299)" fill="none" stroke="#ededed" stroke-linecap="round" stroke-linejoin="round" stroke-width="5"/>
      <path id="Path_6569" data-name="Path 6569" d="M481.084,573.3" transform="translate(-422.939 -561.045)" fill="none" stroke="#ededed" stroke-linecap="round" stroke-linejoin="round" stroke-width="5"/>
      <path id="Path_6570" data-name="Path 6570" d="M466.549,573.3c6.908,0,5.718,12.256,14.535,12.254" transform="translate(-422.939 -573.299)" fill="none" stroke="#ededed" stroke-linecap="round" stroke-linejoin="round" stroke-width="5"/>
    </g>
    <g id="Group_10128" data-name="Group 10128" transform="matrix(0.602, 0.799, -0.799, 0.602, 37.905, 152.629)">
      <path id="Path_6571" data-name="Path 6571" d="M14.536,12.255C7.626,12.255,8.818,0,0,0" transform="translate(0 0)" fill="none" stroke="#ededed" stroke-linecap="round" stroke-linejoin="round" stroke-width="5"/>
      <path id="Path_6572" data-name="Path 6572" d="M14.535,12.254C7.625,12.254,8.816,0,0,0" transform="translate(29.074 0.001)" fill="none" stroke="#ededed" stroke-linecap="round" stroke-linejoin="round" stroke-width="5"/>
      <path id="Path_6573" data-name="Path 6573" d="M0,12.254C6.911,12.254,5.72,0,14.538,0" transform="translate(14.536 0.001)" fill="none" stroke="#ededed" stroke-linecap="round" stroke-linejoin="round" stroke-width="5"/>
      <path id="Path_6574" data-name="Path 6574" d="M0,0" transform="translate(58.145 0.001)" fill="none" stroke="#ededed" stroke-linecap="round" stroke-linejoin="round" stroke-width="5"/>
      <path id="Path_6575" data-name="Path 6575" d="M0,12.254C6.909,12.253,5.718,0,14.536,0" transform="translate(43.609 0.001)" fill="none" stroke="#ededed" stroke-linecap="round" stroke-linejoin="round" stroke-width="5"/>
    </g>
    <g id="Group_10129" data-name="Group 10129" transform="translate(516.164 0)">
      <path id="Path_6576" data-name="Path 6576" d="M357.064,77.648c0,6.911-12.254,5.719-12.254,14.536" transform="translate(-344.81 -34.04)" fill="none" stroke="#ededed" stroke-linecap="round" stroke-linejoin="round" stroke-width="5"/>
      <path id="Path_6577" data-name="Path 6577" d="M357.064,48.576c0,6.91-12.254,5.719-12.254,14.535" transform="translate(-344.81 -34.04)" fill="none" stroke="#ededed" stroke-linecap="round" stroke-linejoin="round" stroke-width="5"/>
      <path id="Path_6578" data-name="Path 6578" d="M357.064,77.648c0-6.91-12.254-5.719-12.254-14.537" transform="translate(-344.81 -34.04)" fill="none" stroke="#ededed" stroke-linecap="round" stroke-linejoin="round" stroke-width="5"/>
      <path id="Path_6579" data-name="Path 6579" d="M344.81,34.04" transform="translate(-344.81 -34.04)" fill="none" stroke="#ededed" stroke-linecap="round" stroke-linejoin="round" stroke-width="5"/>
      <path id="Path_6580" data-name="Path 6580" d="M357.064,48.576c0-6.909-12.254-5.719-12.254-14.536" transform="translate(-344.81 -34.04)" fill="none" stroke="#ededed" stroke-linecap="round" stroke-linejoin="round" stroke-width="5"/>
    </g>
    <g id="Group_10130" data-name="Group 10130" transform="translate(335.992 152.071)">
      <path id="Path_6581" data-name="Path 6581" d="M267.924,229.72c0,6.91-12.254,5.718-12.254,14.536" transform="translate(-255.67 -186.111)" fill="none" stroke="#ededed" stroke-linecap="round" stroke-linejoin="round" stroke-width="5"/>
      <path id="Path_6582" data-name="Path 6582" d="M267.924,200.647c0,6.911-12.254,5.719-12.254,14.536" transform="translate(-255.67 -186.111)" fill="none" stroke="#ededed" stroke-linecap="round" stroke-linejoin="round" stroke-width="5"/>
      <path id="Path_6583" data-name="Path 6583" d="M267.924,229.72c0-6.911-12.254-5.72-12.254-14.537" transform="translate(-255.67 -186.111)" fill="none" stroke="#ededed" stroke-linecap="round" stroke-linejoin="round" stroke-width="5"/>
      <path id="Path_6584" data-name="Path 6584" d="M255.67,186.111" transform="translate(-255.67 -186.111)" fill="none" stroke="#ededed" stroke-linecap="round" stroke-linejoin="round" stroke-width="5"/>
      <path id="Path_6585" data-name="Path 6585" d="M267.924,200.647c0-6.909-12.254-5.718-12.254-14.536" transform="translate(-255.67 -186.111)" fill="none" stroke="#ededed" stroke-linecap="round" stroke-linejoin="round" stroke-width="5"/>
    </g>
    <g id="Group_10131" data-name="Group 10131" transform="translate(1819.018 176.112)">
      <path id="Path_6586" data-name="Path 6586" d="M509.557,487.185c0-6.911-12.254-5.719-12.254-14.537" transform="translate(-497.303 -472.648)" fill="none" stroke="#ededed" stroke-linecap="round" stroke-linejoin="round" stroke-width="5"/>
      <path id="Path_6587" data-name="Path 6587" d="M509.557,458.111c0-6.91-12.254-5.719-12.254-14.535" transform="translate(-497.303 -414.502)" fill="none" stroke="#ededed" stroke-linecap="round" stroke-linejoin="round" stroke-width="5"/>
      <path id="Path_6588" data-name="Path 6588" d="M509.557,458.111c0,6.91-12.254,5.718-12.254,14.537" transform="translate(-497.303 -443.574)" fill="none" stroke="#ededed" stroke-linecap="round" stroke-linejoin="round" stroke-width="5"/>
      <path id="Path_6589" data-name="Path 6589" d="M497.3,429.041" transform="translate(-497.303 -370.897)" fill="none" stroke="#ededed" stroke-linecap="round" stroke-linejoin="round" stroke-width="5"/>
      <path id="Path_6590" data-name="Path 6590" d="M509.557,429.041c0,6.908-12.254,5.719-12.254,14.535" transform="translate(-497.303 -385.432)" fill="none" stroke="#ededed" stroke-linecap="round" stroke-linejoin="round" stroke-width="5"/>
    </g>
    <g id="Group_10132" data-name="Group 10132" transform="translate(1256.503 153.203)">
      <path id="Path_6591" data-name="Path 6591" d="M209.751,510.094c0-6.91-12.253-5.718-12.253-14.535" transform="translate(-197.498 -495.559)" fill="none" stroke="#ededed" stroke-linecap="round" stroke-linejoin="round" stroke-width="5"/>
      <path id="Path_6592" data-name="Path 6592" d="M209.751,481.021c0-6.91-12.253-5.719-12.253-14.535" transform="translate(-197.498 -437.413)" fill="none" stroke="#ededed" stroke-linecap="round" stroke-linejoin="round" stroke-width="5"/>
      <path id="Path_6593" data-name="Path 6593" d="M209.751,481.021c0,6.911-12.253,5.721-12.253,14.538" transform="translate(-197.498 -466.486)" fill="none" stroke="#ededed" stroke-linecap="round" stroke-linejoin="round" stroke-width="5"/>
      <path id="Path_6594" data-name="Path 6594" d="M197.5,451.949" transform="translate(-197.498 -393.804)" fill="none" stroke="#ededed" stroke-linecap="round" stroke-linejoin="round" stroke-width="5"/>
      <path id="Path_6595" data-name="Path 6595" d="M209.751,451.949c0,6.91-12.253,5.719-12.253,14.537" transform="translate(-197.498 -408.341)" fill="none" stroke="#ededed" stroke-linecap="round" stroke-linejoin="round" stroke-width="5"/>
    </g>
    <line id="Line_16" data-name="Line 16" x2="35.869" transform="translate(600.643 85.519)" fill="none" stroke="#ededed" stroke-linecap="round" stroke-linejoin="round" stroke-width="5"/>
    <line id="Line_17" data-name="Line 17" x2="35.869" transform="translate(839.659 4.568)" fill="none" stroke="#ededed" stroke-linecap="round" stroke-linejoin="round" stroke-width="5"/>
    <line id="Line_18" data-name="Line 18" x2="35.869" transform="translate(1237.432 90.072)" fill="none" stroke="#ededed" stroke-linecap="round" stroke-linejoin="round" stroke-width="5"/>
    <line id="Line_19" data-name="Line 19" x2="25.363" y2="25.363" transform="translate(1387.818 159.369)" fill="none" stroke="#ededed" stroke-linecap="round" stroke-linejoin="round" stroke-width="5"/>
    <line id="Line_20" data-name="Line 20" y1="25.363" x2="25.363" transform="translate(25.144 4.568)" fill="none" stroke="#ededed" stroke-linecap="round" stroke-linejoin="round" stroke-width="5"/>
    <path id="Path_6596" data-name="Path 6596" d="M368.336,181.285l-10.5-18.162-10.469,18.172-10.479,18.176,20.973-.018,20.977-.01Z" transform="translate(175.431 -16.04)" fill="none" stroke="#ededed" stroke-miterlimit="10" stroke-width="1"/>
    <path id="Path_6597" data-name="Path 6597" d="M178.253,96.74l5.417-20.269-20.252,5.447-20.262,5.442L158,102.179,172.839,117Z" transform="translate(-36.866 -34.04)" fill="none" stroke="#ededed" stroke-miterlimit="10" stroke-width="1"/>
    <path id="Path_6598" data-name="Path 6598" d="M163.89,534.647l5.417,20.269-20.252-5.447-20.262-5.443,14.843-14.816,14.84-14.826Z" transform="translate(1024.272 -406.002)" fill="none" stroke="#ededed" stroke-miterlimit="10" stroke-width="1"/>
    <path id="Path_6599" data-name="Path 6599" d="M544.432,119.38l18.162-10.5L544.422,98.41,526.246,87.932l.018,20.973.01,20.977Z" transform="translate(301.189 -34.04)" fill="none" stroke="#ededed" stroke-miterlimit="10" stroke-width="1"/>
    <path id="Path_6600" data-name="Path 6600" d="M323.379,117.005a15.913,15.913,0,1,1-15.913-15.913A15.913,15.913,0,0,1,323.379,117.005Z" transform="translate(138.356 -34.04)" fill="none" stroke="#ededed" stroke-miterlimit="10" stroke-width="1"/>
    <path id="Path_6601" data-name="Path 6601" d="M333.535,586.658a15.913,15.913,0,1,0-15.913,15.912A15.914,15.914,0,0,0,333.535,586.658Z" transform="translate(1139.57 -510.017)" fill="none" stroke="#ededed" stroke-miterlimit="10" stroke-width="1"/>
    <path id="Path_6602" data-name="Path 6602" d="M376.1,546.961a15.914,15.914,0,0,0,31.828,0" transform="translate(1321.715 -446.537)" fill="none" stroke="#ededed" stroke-miterlimit="10" stroke-width="1"/>
    <path id="Path_6603" data-name="Path 6603" d="M81.667,189.254a15.841,15.841,0,1,1,31.682,0" transform="translate(-36.866 -34.04)" fill="none" stroke="#ededed" stroke-miterlimit="10" stroke-width="1"/>
    <path id="Path_6604" data-name="Path 6604" d="M482.785,215.312a15.841,15.841,0,1,1,0-31.682" transform="translate(254.824 -34.04)" fill="none" stroke="#ededed" stroke-miterlimit="10" stroke-width="1"/>
    <path id="Path_6605" data-name="Path 6605" d="M99.607,554.9a15.841,15.841,0,1,0,0,31.682" transform="translate(983.442 -478.189)" fill="none" stroke="#ededed" stroke-miterlimit="10" stroke-width="1"/>
    <path id="Path_6606" data-name="Path 6606" d="M270.367,80.49a15.841,15.841,0,1,1,0-31.682" transform="translate(80.046 -34.04)" fill="none" stroke="#ededed" stroke-miterlimit="10" stroke-width="1"/>
    <rect id="Rectangle_895" data-name="Rectangle 895" width="31.654" height="31.654" transform="translate(875.314 165.604)" fill="none" stroke="#ededed" stroke-miterlimit="10" stroke-width="1"/>
    <rect id="Rectangle_896" data-name="Rectangle 896" width="31.652" height="31.654" transform="translate(1875.983 76.726)" fill="none" stroke="#ededed" stroke-miterlimit="10" stroke-width="1"/>
    <rect id="Rectangle_897" data-name="Rectangle 897" width="31.652" height="31.654" transform="translate(651.68 14.782)" fill="none" stroke="#ededed" stroke-miterlimit="10" stroke-width="1"/>
    <g id="Group_10133" data-name="Group 10133" transform="translate(1767.471 64.385)">
      <path id="Path_6607" data-name="Path 6607" d="M460.293,586.656c-6.91,0-5.719,12.256-14.537,12.256" transform="translate(-445.756 -586.656)" fill="none" stroke="#ededed" stroke-miterlimit="10" stroke-width="1"/>
      <path id="Path_6608" data-name="Path 6608" d="M489.365,586.658c-6.91,0-5.719,12.254-14.535,12.254" transform="translate(-445.756 -586.658)" fill="none" stroke="#ededed" stroke-miterlimit="10" stroke-width="1"/>
      <path id="Path_6609" data-name="Path 6609" d="M460.293,586.658c6.91,0,5.719,12.254,14.537,12.254" transform="translate(-445.756 -586.658)" fill="none" stroke="#ededed" stroke-miterlimit="10" stroke-width="1"/>
      <path id="Path_6610" data-name="Path 6610" d="M503.9,586.658" transform="translate(-445.756 -574.404)" fill="none" stroke="#ededed" stroke-miterlimit="10" stroke-width="1"/>
      <path id="Path_6611" data-name="Path 6611" d="M489.365,586.658c6.908,0,5.719,12.256,14.535,12.254" transform="translate(-445.756 -586.658)" fill="none" stroke="#ededed" stroke-miterlimit="10" stroke-width="1"/>
    </g>
    <g id="Group_10134" data-name="Group 10134" transform="translate(554.409 13.359)">
      <path id="Path_6612" data-name="Path 6612" d="M379.881,91.008c0,6.91-12.254,5.718-12.254,14.536" transform="translate(-367.627 -47.399)" fill="none" stroke="#ededed" stroke-miterlimit="10" stroke-width="1"/>
      <path id="Path_6613" data-name="Path 6613" d="M379.881,61.935c0,6.911-12.254,5.719-12.254,14.536" transform="translate(-367.627 -47.399)" fill="none" stroke="#ededed" stroke-miterlimit="10" stroke-width="1"/>
      <path id="Path_6614" data-name="Path 6614" d="M379.881,91.008c0-6.91-12.254-5.72-12.254-14.537" transform="translate(-367.627 -47.399)" fill="none" stroke="#ededed" stroke-miterlimit="10" stroke-width="1"/>
      <path id="Path_6615" data-name="Path 6615" d="M367.627,47.4" transform="translate(-367.627 -47.399)" fill="none" stroke="#ededed" stroke-miterlimit="10" stroke-width="1"/>
      <path id="Path_6616" data-name="Path 6616" d="M379.881,61.935c0-6.909-12.254-5.718-12.254-14.536" transform="translate(-367.627 -47.399)" fill="none" stroke="#ededed" stroke-miterlimit="10" stroke-width="1"/>
    </g>
    <g id="Group_10135" data-name="Group 10135" transform="translate(404.996 165.431)">
      <path id="Path_6617" data-name="Path 6617" d="M290.741,243.079c0,6.91-12.254,5.719-12.254,14.536" transform="translate(-278.487 -199.471)" fill="none" stroke="#ededed" stroke-miterlimit="10" stroke-width="1"/>
      <path id="Path_6618" data-name="Path 6618" d="M290.741,214.007c0,6.91-12.254,5.718-12.254,14.535" transform="translate(-278.487 -199.471)" fill="none" stroke="#ededed" stroke-miterlimit="10" stroke-width="1"/>
      <path id="Path_6619" data-name="Path 6619" d="M290.741,243.079c0-6.91-12.254-5.72-12.254-14.537" transform="translate(-278.487 -199.471)" fill="none" stroke="#ededed" stroke-miterlimit="10" stroke-width="1"/>
      <path id="Path_6620" data-name="Path 6620" d="M278.487,199.471" transform="translate(-278.487 -199.471)" fill="none" stroke="#ededed" stroke-miterlimit="10" stroke-width="1"/>
      <path id="Path_6621" data-name="Path 6621" d="M290.741,214.007c0-6.909-12.254-5.719-12.254-14.536" transform="translate(-278.487 -199.471)" fill="none" stroke="#ededed" stroke-miterlimit="10" stroke-width="1"/>
    </g>
    <g id="Group_10136" data-name="Group 10136" transform="translate(1841.834 162.752)">
      <path id="Path_6622" data-name="Path 6622" d="M532.373,500.545c0-6.91-12.254-5.718-12.254-14.537" transform="translate(-520.119 -486.008)" fill="none" stroke="#ededed" stroke-miterlimit="10" stroke-width="1"/>
      <path id="Path_6623" data-name="Path 6623" d="M532.373,471.471c0-6.911-12.254-5.719-12.254-14.536" transform="translate(-520.119 -427.861)" fill="none" stroke="#ededed" stroke-miterlimit="10" stroke-width="1"/>
      <path id="Path_6624" data-name="Path 6624" d="M532.373,471.471c0,6.91-12.254,5.719-12.254,14.537" transform="translate(-520.119 -456.934)" fill="none" stroke="#ededed" stroke-miterlimit="10" stroke-width="1"/>
      <path id="Path_6625" data-name="Path 6625" d="M520.119,442.4" transform="translate(-520.119 -384.255)" fill="none" stroke="#ededed" stroke-miterlimit="10" stroke-width="1"/>
      <path id="Path_6626" data-name="Path 6626" d="M532.373,442.4c0,6.908-12.254,5.718-12.254,14.535" transform="translate(-520.119 -398.79)" fill="none" stroke="#ededed" stroke-miterlimit="10" stroke-width="1"/>
    </g>
    <g id="Group_10137" data-name="Group 10137" transform="translate(1294.746 139.844)">
      <path id="Path_6627" data-name="Path 6627" d="M232.568,523.453c0-6.91-12.254-5.719-12.254-14.535" transform="translate(-220.314 -508.918)" fill="none" stroke="#ededed" stroke-miterlimit="10" stroke-width="1"/>
      <path id="Path_6628" data-name="Path 6628" d="M232.568,494.381c0-6.91-12.254-5.718-12.254-14.535" transform="translate(-220.314 -450.774)" fill="none" stroke="#ededed" stroke-miterlimit="10" stroke-width="1"/>
      <path id="Path_6629" data-name="Path 6629" d="M232.568,494.381c0,6.91-12.254,5.721-12.254,14.537" transform="translate(-220.314 -479.846)" fill="none" stroke="#ededed" stroke-miterlimit="10" stroke-width="1"/>
      <path id="Path_6630" data-name="Path 6630" d="M220.314,465.309" transform="translate(-220.314 -407.165)" fill="none" stroke="#ededed" stroke-miterlimit="10" stroke-width="1"/>
      <path id="Path_6631" data-name="Path 6631" d="M232.568,465.309c0,6.911-12.254,5.719-12.254,14.537" transform="translate(-220.314 -421.702)" fill="none" stroke="#ededed" stroke-miterlimit="10" stroke-width="1"/>
    </g>
    <line id="Line_21" data-name="Line 21" x2="35.869" transform="translate(639.214 98.878)" fill="none" stroke="#ededed" stroke-miterlimit="10" stroke-width="1"/>
    <line id="Line_22" data-name="Line 22" x2="35.869" transform="translate(878.23 17.928)" fill="none" stroke="#ededed" stroke-miterlimit="10" stroke-width="1"/>
    <line id="Line_23" data-name="Line 23" x2="35.869" transform="translate(1276.003 76.713)" fill="none" stroke="#ededed" stroke-miterlimit="10" stroke-width="1"/>
    <line id="Line_24" data-name="Line 24" x2="25.363" y2="25.363" transform="translate(1426.242 146.01)" fill="none" stroke="#ededed" stroke-miterlimit="10" stroke-width="1"/>
    <line id="Line_25" data-name="Line 25" y1="25.363" x2="25.363" transform="translate(47.961 17.928)" fill="none" stroke="#ededed" stroke-miterlimit="10" stroke-width="1"/>
    <path id="Path_6632" data-name="Path 6632" d="M152.39,158.184a6.267,6.267,0,1,1,1.964-8.64A6.265,6.265,0,0,1,152.39,158.184Z" transform="translate(-36.866 -34.04)" fill="none" stroke="#ededed" stroke-linecap="round" stroke-linejoin="round" stroke-width="5"/>
    <path id="Path_6633" data-name="Path 6633" d="M497.166,155.066a6.267,6.267,0,1,1,1.965-8.639A6.265,6.265,0,0,1,497.166,155.066Z" transform="translate(267.951 -34.04)" fill="none" stroke="#ededed" stroke-linecap="round" stroke-linejoin="round" stroke-width="5"/>
    <g id="Group_10138" data-name="Group 10138" transform="translate(1319.846 298.354)">
      <line id="Line_26" data-name="Line 26" x1="15.252" y2="14.305" transform="translate(0 0.476)" fill="none" stroke="#ededed" stroke-linecap="round" stroke-linejoin="round" stroke-width="5"/>
      <line id="Line_27" data-name="Line 27" x2="14.307" y2="15.252" transform="translate(0.472 0)" fill="none" stroke="#ededed" stroke-linecap="round" stroke-linejoin="round" stroke-width="5"/>
    </g>
    <g id="Group_10139" data-name="Group 10139" transform="translate(1800.764 270.547)">
      <line id="Line_28" data-name="Line 28" x1="15.252" y2="14.305" transform="translate(0 0.477)" fill="none" stroke="#ededed" stroke-linecap="round" stroke-linejoin="round" stroke-width="5"/>
      <line id="Line_29" data-name="Line 29" x2="14.307" y2="15.252" transform="translate(0.471 0)" fill="none" stroke="#ededed" stroke-linecap="round" stroke-linejoin="round" stroke-width="5"/>
    </g>
    <path id="Path_6634" data-name="Path 6634" d="M310.8,389.951l-10.5,18.162-10.469-18.172-10.478-18.176,20.973.017,20.977.01Z" transform="translate(1129.412 -116.582)" fill="none" stroke="#ededed" stroke-linecap="round" stroke-linejoin="round" stroke-width="5"/>
    <path id="Path_6635" data-name="Path 6635" d="M500.363,318.671l5.418-20.268-20.252,5.447-20.262,5.442,14.842,14.819,14.84,14.826Z" transform="translate(260.177 -34.04)" fill="none" stroke="#ededed" stroke-linecap="round" stroke-linejoin="round" stroke-width="5"/>
    <path id="Path_6636" data-name="Path 6636" d="M140.609,315.572l18.162-10.5L140.6,294.6l-18.176-10.479.019,20.973.01,20.978Z" transform="translate(-36.866 -34.04)" fill="none" stroke="#ededed" stroke-linecap="round" stroke-linejoin="round" stroke-width="5"/>
    <path id="Path_6637" data-name="Path 6637" d="M380.967,281.228a15.913,15.913,0,1,1-15.912-15.913A15.914,15.914,0,0,1,380.967,281.228Z" transform="translate(177.977 -34.04)" fill="none" stroke="#ededed" stroke-linecap="round" stroke-linejoin="round" stroke-width="5"/>
    <path id="Path_6638" data-name="Path 6638" d="M226.268,305.1a15.913,15.913,0,1,1,31.827,0" transform="translate(-36.866 -34.04)" fill="none" stroke="#ededed" stroke-linecap="round" stroke-linejoin="round" stroke-width="5"/>
    <path id="Path_6639" data-name="Path 6639" d="M84.748,405.854a15.914,15.914,0,1,0-15.914,15.912A15.914,15.914,0,0,0,84.748,405.854Z" transform="translate(968.406 -148.408)" fill="none" stroke="#ededed" stroke-linecap="round" stroke-linejoin="round" stroke-width="5"/>
    <path id="Path_6640" data-name="Path 6640" d="M575.469,424.027a15.913,15.913,0,1,0-15.912,15.912A15.914,15.914,0,0,0,575.469,424.027Z" transform="translate(1321.715 -184.755)" fill="none" stroke="#ededed" stroke-linecap="round" stroke-linejoin="round" stroke-width="5"/>
    <rect id="Rectangle_898" data-name="Rectangle 898" width="31.653" height="31.654" transform="translate(1222.206 243.445)" fill="none" stroke="#ededed" stroke-linecap="round" stroke-linejoin="round" stroke-width="5"/>
    <g id="Group_10140" data-name="Group 10140" transform="translate(1520.909 305.979)">
      <path id="Path_6641" data-name="Path 6641" d="M354.658,345.064c-6.91,0-5.719,12.254-14.537,12.254" transform="translate(-340.121 -345.064)" fill="none" stroke="#ededed" stroke-linecap="round" stroke-linejoin="round" stroke-width="5"/>
      <path id="Path_6642" data-name="Path 6642" d="M383.73,345.064c-6.91,0-5.718,12.254-14.535,12.254" transform="translate(-340.121 -345.064)" fill="none" stroke="#ededed" stroke-linecap="round" stroke-linejoin="round" stroke-width="5"/>
      <path id="Path_6643" data-name="Path 6643" d="M354.658,345.064c6.91,0,5.719,12.254,14.537,12.254" transform="translate(-340.121 -345.064)" fill="none" stroke="#ededed" stroke-linecap="round" stroke-linejoin="round" stroke-width="5"/>
      <path id="Path_6644" data-name="Path 6644" d="M398.266,345.064" transform="translate(-340.121 -332.81)" fill="none" stroke="#ededed" stroke-linecap="round" stroke-linejoin="round" stroke-width="5"/>
      <path id="Path_6645" data-name="Path 6645" d="M383.73,345.064c6.909,0,5.719,12.254,14.536,12.254" transform="translate(-340.121 -345.064)" fill="none" stroke="#ededed" stroke-linecap="round" stroke-linejoin="round" stroke-width="5"/>
    </g>
    <g id="Group_10141" data-name="Group 10141" transform="translate(725.665 210.216)">
      <path id="Path_6646" data-name="Path 6646" d="M477.119,256.511c-6.91,0-5.719-12.255-14.535-12.255" transform="translate(-462.584 -244.256)" fill="none" stroke="#ededed" stroke-linecap="round" stroke-linejoin="round" stroke-width="5"/>
      <path id="Path_6647" data-name="Path 6647" d="M506.191,256.511c-6.91,0-5.718-12.254-14.535-12.254" transform="translate(-462.584 -244.256)" fill="none" stroke="#ededed" stroke-linecap="round" stroke-linejoin="round" stroke-width="5"/>
      <path id="Path_6648" data-name="Path 6648" d="M477.119,256.511c6.91,0,5.721-12.254,14.537-12.254" transform="translate(-462.584 -244.256)" fill="none" stroke="#ededed" stroke-linecap="round" stroke-linejoin="round" stroke-width="5"/>
      <path id="Path_6649" data-name="Path 6649" d="M520.728,244.257" transform="translate(-462.584 -244.256)" fill="none" stroke="#ededed" stroke-linecap="round" stroke-linejoin="round" stroke-width="5"/>
      <path id="Path_6650" data-name="Path 6650" d="M506.191,256.511c6.91,0,5.719-12.255,14.537-12.254" transform="translate(-462.584 -244.256)" fill="none" stroke="#ededed" stroke-linecap="round" stroke-linejoin="round" stroke-width="5"/>
    </g>
    <line id="Line_30" data-name="Line 30" x2="35.869" transform="translate(1711.207 273.357)" fill="none" stroke="#ededed" stroke-linecap="round" stroke-linejoin="round" stroke-width="5"/>
    <line id="Line_31" data-name="Line 31" x2="35.869" transform="translate(0 252.25)" fill="none" stroke="#ededed" stroke-linecap="round" stroke-linejoin="round" stroke-width="5"/>
    <line id="Line_32" data-name="Line 32" y1="25.363" x2="25.363" transform="translate(866.657 264.581)" fill="none" stroke="#ededed" stroke-linecap="round" stroke-linejoin="round" stroke-width="5"/>
    <path id="Path_6651" data-name="Path 6651" d="M333.617,403.31l-10.5,18.162L312.646,403.3l-10.479-18.176,20.973.018,20.977.01Z" transform="translate(1145.253 -143.301)" fill="none" stroke="#ededed" stroke-miterlimit="10" stroke-width="1"/>
    <path id="Path_6652" data-name="Path 6652" d="M523.18,332.031l5.418-20.268-20.252,5.447-20.262,5.442,14.842,14.818,14.84,14.826Z" transform="translate(275.998 -34.04)" fill="none" stroke="#ededed" stroke-miterlimit="10" stroke-width="1"/>
    <path id="Path_6653" data-name="Path 6653" d="M163.425,328.932l18.162-10.5L163.415,307.96,145.24,297.482l.019,20.972.01,20.979Z" transform="translate(-36.866 -34.04)" fill="none" stroke="#ededed" stroke-miterlimit="10" stroke-width="1"/>
    <path id="Path_6654" data-name="Path 6654" d="M403.783,294.588a15.913,15.913,0,1,1-15.912-15.913A15.913,15.913,0,0,1,403.783,294.588Z" transform="translate(193.674 -34.04)" fill="none" stroke="#ededed" stroke-miterlimit="10" stroke-width="1"/>
    <path id="Path_6655" data-name="Path 6655" d="M249.084,318.456a15.914,15.914,0,0,1,31.828,0" transform="translate(109.139 -34.04)" fill="none" stroke="#ededed" stroke-miterlimit="10" stroke-width="1"/>
    <path id="Path_6656" data-name="Path 6656" d="M107.564,419.213a15.914,15.914,0,1,0-15.913,15.912A15.914,15.914,0,0,0,107.564,419.213Z" transform="translate(984.104 -175.127)" fill="none" stroke="#ededed" stroke-miterlimit="10" stroke-width="1"/>
    <path id="Path_6657" data-name="Path 6657" d="M598.285,437.387A15.913,15.913,0,1,0,582.373,453.3,15.914,15.914,0,0,0,598.285,437.387Z" transform="translate(1321.715 -211.475)" fill="none" stroke="#ededed" stroke-miterlimit="10" stroke-width="1"/>
    <rect id="Rectangle_899" data-name="Rectangle 899" width="31.653" height="31.654" transform="translate(1260.717 230.086)" fill="none" stroke="#ededed" stroke-miterlimit="10" stroke-width="1"/>
    <g id="Group_10142" data-name="Group 10142" transform="translate(1585.758 292.619)">
      <path id="Path_6658" data-name="Path 6658" d="M377.475,358.424c-6.911,0-5.719,12.254-14.538,12.254" transform="translate(-362.937 -358.424)" fill="none" stroke="#ededed" stroke-miterlimit="10" stroke-width="1"/>
      <path id="Path_6659" data-name="Path 6659" d="M406.547,358.424c-6.91,0-5.719,12.254-14.535,12.254" transform="translate(-362.937 -358.424)" fill="none" stroke="#ededed" stroke-miterlimit="10" stroke-width="1"/>
      <path id="Path_6660" data-name="Path 6660" d="M377.475,358.424c6.91,0,5.718,12.254,14.537,12.254" transform="translate(-362.937 -358.424)" fill="none" stroke="#ededed" stroke-miterlimit="10" stroke-width="1"/>
      <path id="Path_6661" data-name="Path 6661" d="M421.082,358.424" transform="translate(-362.937 -346.17)" fill="none" stroke="#ededed" stroke-miterlimit="10" stroke-width="1"/>
      <path id="Path_6662" data-name="Path 6662" d="M406.547,358.424c6.908,0,5.719,12.254,14.535,12.254" transform="translate(-362.937 -358.424)" fill="none" stroke="#ededed" stroke-miterlimit="10" stroke-width="1"/>
    </g>
    <g id="Group_10143" data-name="Group 10143" transform="translate(764.557 223.575)">
      <path id="Path_6663" data-name="Path 6663" d="M499.935,269.87c-6.91,0-5.718-12.255-14.535-12.255" transform="translate(-485.4 -257.615)" fill="none" stroke="#ededed" stroke-miterlimit="10" stroke-width="1"/>
      <path id="Path_6664" data-name="Path 6664" d="M529.008,269.87c-6.91,0-5.719-12.254-14.535-12.254" transform="translate(-485.4 -257.615)" fill="none" stroke="#ededed" stroke-miterlimit="10" stroke-width="1"/>
      <path id="Path_6665" data-name="Path 6665" d="M499.935,269.87c6.911,0,5.721-12.254,14.538-12.254" transform="translate(-485.4 -257.615)" fill="none" stroke="#ededed" stroke-miterlimit="10" stroke-width="1"/>
      <path id="Path_6666" data-name="Path 6666" d="M543.545,257.616" transform="translate(-485.4 -257.615)" fill="none" stroke="#ededed" stroke-miterlimit="10" stroke-width="1"/>
      <path id="Path_6667" data-name="Path 6667" d="M529.008,269.87c6.91,0,5.718-12.255,14.537-12.254" transform="translate(-485.4 -257.615)" fill="none" stroke="#ededed" stroke-miterlimit="10" stroke-width="1"/>
    </g>
    <g id="Group_10144" data-name="Group 10144" transform="translate(44.252 208.767)">
      <path id="Path_6668" data-name="Path 6668" d="M95.654,255.061c-6.91,0-5.719-12.254-14.536-12.254" transform="translate(-81.118 -242.807)" fill="none" stroke="#ededed" stroke-miterlimit="10" stroke-width="1"/>
      <path id="Path_6669" data-name="Path 6669" d="M124.726,255.061c-6.91,0-5.719-12.253-14.535-12.253" transform="translate(-81.118 -242.807)" fill="none" stroke="#ededed" stroke-miterlimit="10" stroke-width="1"/>
      <path id="Path_6670" data-name="Path 6670" d="M95.654,255.061c6.91,0,5.72-12.253,14.537-12.253" transform="translate(-81.118 -242.807)" fill="none" stroke="#ededed" stroke-miterlimit="10" stroke-width="1"/>
      <path id="Path_6671" data-name="Path 6671" d="M139.262,242.808" transform="translate(-81.118 -242.807)" fill="none" stroke="#ededed" stroke-miterlimit="10" stroke-width="1"/>
      <path id="Path_6672" data-name="Path 6672" d="M124.726,255.061c6.909,0,5.719-12.254,14.536-12.253" transform="translate(-81.118 -242.807)" fill="none" stroke="#ededed" stroke-miterlimit="10" stroke-width="1"/>
    </g>
    <line id="Line_33" data-name="Line 33" x2="35.869" transform="translate(1734.024 259.998)" fill="none" stroke="#ededed" stroke-miterlimit="10" stroke-width="1"/>
    <line id="Line_34" data-name="Line 34" x2="35.869" transform="translate(22.816 265.609)" fill="none" stroke="#ededed" stroke-miterlimit="10" stroke-width="1"/>
    <line id="Line_35" data-name="Line 35" y1="25.364" x2="25.363" transform="translate(905.081 277.94)" fill="none" stroke="#ededed" stroke-miterlimit="10" stroke-width="1"/>
    <path id="Path_6673" data-name="Path 6673" d="M314.058,302.445a6.267,6.267,0,1,1,1.964-8.639A6.265,6.265,0,0,1,314.058,302.445Z" transform="translate(144.11 -34.04)" fill="none" stroke="#ededed" stroke-linecap="round" stroke-linejoin="round" stroke-width="5"/>
    <path id="Path_6674" data-name="Path 6674" d="M88.167,344.858A6.268,6.268,0,1,0,90.13,353.5,6.265,6.265,0,0,0,88.167,344.858Z" transform="translate(978.689 -37.029)" fill="none" stroke="#ededed" stroke-linecap="round" stroke-linejoin="round" stroke-width="5"/>
    <path id="Path_6675" data-name="Path 6675" d="M585.711,367.767a6.267,6.267,0,1,0,1.965,8.641A6.265,6.265,0,0,0,585.711,367.767Z" transform="translate(1321.715 -82.845)" fill="none" stroke="#ededed" stroke-linecap="round" stroke-linejoin="round" stroke-width="5"/>
  </g>
</svg>
