<svg xmlns="http://www.w3.org/2000/svg" width="33.148" height="25.769" viewBox="0 0 33.148 25.769">
  <g id="Group_10246" data-name="Group 10246" transform="translate(0 0)">
    <path id="Path_6348" data-name="Path 6348" d="M2.76,33.148a2.76,2.76,0,0,0,2.76-2.76V2.76A2.76,2.76,0,1,0,0,2.76V30.388A2.76,2.76,0,0,0,2.76,33.148Z" transform="translate(0 15.644) rotate(-90)"/>
    <path id="Path_6349" data-name="Path 6349" d="M2.76,18.548a2.76,2.76,0,0,0,2.76-2.76V2.76A2.76,2.76,0,1,0,0,2.76V15.788A2.76,2.76,0,0,0,2.76,18.548Z" transform="translate(14.599 5.52) rotate(-90)"/>
    <path id="Path_6682" data-name="Path 6682" d="M2.76,0A2.76,2.76,0,0,1,5.52,2.76V15.788a2.76,2.76,0,1,1-5.52,0V2.76A2.76,2.76,0,0,1,2.76,0Z" transform="translate(0 25.768) rotate(-90)"/>
    <path id="Path_6350" data-name="Path 6350" d="M2.76,11.248a2.76,2.76,0,0,0,2.76-2.76V2.76A2.76,2.76,0,1,0,0,2.76V8.489A2.76,2.76,0,0,0,2.76,11.248Z" transform="translate(0 5.52) rotate(-90)"/>
    <path id="Path_6683" data-name="Path 6683" d="M2.76,0A2.76,2.76,0,0,1,5.52,2.76V8.489a2.76,2.76,0,1,1-5.52,0V2.76A2.76,2.76,0,0,1,2.76,0Z" transform="translate(21.899 25.768) rotate(-90)"/>
  </g>
</svg>
